# xmcd
#
# Track frame offsets:
#	150
#	16318
#	30454
#	45868
#	63952
#	84845
#	99667
#	117575
#	131705
#	136235
#
# Disc length: 2033 seconds
#
# Revision: 1
# Processed by: cddbd v1.5.2PL0 Copyright (c) Steve Scherf et al.
# Submitted via: audiograbber 1.83.01
#
DISCID=7707ef0a
DTITLE=Jack Ingram and Miranda Lambert - CMT Cross Country
DYEAR=2007
DGENRE=Country
TTITLE0=Where Ever You Are (feat Miranda Lambert)
TTITLE1=Gunpowder and Lead (feat Jack Ingram)
TTITLE2=Measure of a Man (feat Miranda Lambert)
TTITLE3=Famous in a Small Town (feat Jack Ingram)
TTITLE4=Hank Done It That Way
TTITLE5=Love You (feat Miranda Lambert)
TTITLE6=Hold On (feat Miranda Lambert)
TTITLE7=Desperation (feat Jack Ingram)
TTITLE8=Goodnight (interlude)
TTITLE9=Kerosene (feat Jack Ingram)
EXTD=
EXTT0=
EXTT1=
EXTT2=
EXTT3=
EXTT4=
EXTT5=
EXTT6=
EXTT7=
EXTT8=
EXTT9=
PLAYORDER=
